HIERARCHY
ROOT Hips
{
	OFFSET -246.377396 91.733124 -540.268188
	CHANNELS 6 Xposition Yposition Zposition Zrotation Yrotation Xrotation 
	JOINT LeftUpLeg
	{
		OFFSET 0.103454 1.857841 10.548504
		CHANNELS 3 Zrotation Yrotation Xrotation
		JOINT LeftLeg
		{
			OFFSET 43.499992 -0.000061 0.000000
			CHANNELS 3 Zrotation Yrotation Xrotation
			JOINT LeftFoot
			{
				OFFSET 42.372196 0.000008 -0.000002
				CHANNELS 3 Zrotation Yrotation Xrotation
				JOINT LeftToe
				{
					OFFSET 17.300022 0.000011 0.000012
					CHANNELS 3 Zrotation Yrotation Xrotation
					End Site
					{
						OFFSET 0.000000 0.000000 0.000000
					}
				}
			}
		}
	}
	JOINT RightUpLeg
	{
		OFFSET 0.103458 1.857820 -10.548491
		CHANNELS 3 Zrotation Yrotation Xrotation
		JOINT RightLeg
		{
			OFFSET 43.500046 0.000015 0.000006
			CHANNELS 3 Zrotation Yrotation Xrotation
			JOINT RightFoot
			{
				OFFSET 42.372269 -0.000046 0.000017
				CHANNELS 3 Zrotation Yrotation Xrotation
				JOINT RightToe
				{
					OFFSET 17.300032 0.000011 0.000015
					CHANNELS 3 Zrotation Yrotation Xrotation
					End Site
					{
						OFFSET 0.000000 0.000000 0.000000
					}
				}
			}
		}
	}
	JOINT Spine
	{
		OFFSET 6.901962 -2.603707 -0.000004
		CHANNELS 3 Zrotation Yrotation Xrotation
		JOINT Spine1
		{
			OFFSET 12.588104 -0.000004 -0.000001
			CHANNELS 3 Zrotation Yrotation Xrotation
			JOINT Spine2
			{
				OFFSET 12.343199 -0.000026 0.000003
				CHANNELS 3 Zrotation Yrotation Xrotation
				JOINT Neck
				{
					OFFSET 25.832890 0.000004 -0.000006
					CHANNELS 3 Zrotation Yrotation Xrotation
					JOINT Head
					{
						OFFSET 11.766623 0.000031 0.000004
						CHANNELS 3 Zrotation Yrotation Xrotation
						End Site
						{
							OFFSET 0.000000 0.000000 0.000000
						}
					}
				}
				JOINT LeftShoulder
				{
					OFFSET 19.745897 -1.480345 6.000100
					CHANNELS 3 Zrotation Yrotation Xrotation
					JOINT LeftArm
					{
						OFFSET 11.284126 0.000003 -0.000015
						CHANNELS 3 Zrotation Yrotation Xrotation
						JOINT LeftForeArm
						{
							OFFSET 33.000057 -0.000023 0.000027
							CHANNELS 3 Zrotation Yrotation Xrotation
							JOINT LeftHand
							{
								OFFSET 25.199987 0.000051 0.000021
								CHANNELS 3 Zrotation Yrotation Xrotation
								End Site
								{
									OFFSET 0.000000 0.000000 0.000000
								}
							}
						}
					}
				}
				JOINT RightShoulder
				{
					OFFSET 19.746086 -1.480362 -6.000076
					CHANNELS 3 Zrotation Yrotation Xrotation
					JOINT RightArm
					{
						OFFSET 11.284140 0.000004 -0.000015
						CHANNELS 3 Zrotation Yrotation Xrotation
						JOINT RightForeArm
						{
							OFFSET 33.000084 -0.000023 0.000011
							CHANNELS 3 Zrotation Yrotation Xrotation
							JOINT RightHand
							{
								OFFSET 25.199789 0.000148 0.000422
								CHANNELS 3 Zrotation Yrotation Xrotation
								End Site
								{
									OFFSET 0.000000 0.000000 0.000000
								}
							}
						}
					}
				}
			}
		}
	}
}
MOTION
Frames: 12
Frame Time: 0.033333
-246.377396 91.733124 -540.268188 91.899437 6.238180 96.956700 -175.466713 -1.040798 174.967754 -9.953131 -0.897056 -9.222468 72.522546 5.385551 -4.078622 21.454550 0.003094 0.000000 -174.623526 4.832197 -173.248472 -12.095491 3.091063 8.165203 77.926912 -5.059774 3.231238 21.454558 -0.003116 -0.000018 7.604863 -0.328114 -0.238416 5.188559 -0.633943 -0.516871 4.870451 -0.636862 -0.513101 3.997597 -7.630559 -4.820310 -18.386422 14.345894 -11.530100 -135.079845 -88.903354 -46.707350 -7.068578 19.155481 -13.824435 -24.599527 -16.317867 1.227124 10.498642 -9.334423 39.664558 -121.673427 81.819717 60.552830 -7.575182 -17.467980 17.542673 -22.356200 16.069514 -1.211038 6.032905 5.480988 -13.531099 
-246.378296 91.732887 -540.265991 91.899437 6.238180 96.961215 -175.466713 -1.042301 174.970964 -9.954984 -0.897059 -9.222468 72.524383 5.385555 -4.078619 21.454553 0.003090 0.000001 -174.623526 4.832198 -173.246751 -12.098619 3.091061 8.166533 77.929897 -5.060908 3.231235 21.454560 -0.003100 -0.000017 7.604858 -0.328111 -0.238413 5.190058 -0.633957 -0.516870 4.871934 -0.636863 -0.513103 3.995064 -7.638075 -4.825378 -18.388423 14.357490 -11.541304 -135.023332 -88.900506 -46.764663 -7.072350 19.160311 -13.821659 -24.603395 -16.317872 1.227103 10.508971 -9.334423 39.682808 -121.699313 81.815441 60.526985 -7.579321 -17.472998 17.539646 -22.353280 16.069506 -1.211051 6.039103 5.461421 -13.521185 
-246.383102 91.731712 -540.253479 91.899437 6.234846 96.990100 -175.471453 -1.050400 174.990171 -9.966456 -0.897063 -9.214831 72.534813 5.379500 -4.078618 21.454553 0.003096 -0.000002 -174.623512 4.832195 -173.238678 -12.116432 3.091053 8.177786 77.946337 -5.069503 3.231240 21.454560 -0.003117 -0.000019 7.604865 -0.328123 -0.238413 5.198370 -0.633940 -0.514647 4.880277 -0.636869 -0.510827 3.982861 -7.684291 -4.854427 -18.406016 14.424050 -11.606801 -134.766722 -88.882850 -47.022335 -7.092112 19.186140 -13.810614 -24.619769 -16.321437 1.227107 10.544049 -9.334161 39.720128 -121.838089 81.791823 60.388571 -7.610397 -17.495711 17.510744 -22.334049 16.069511 -1.211056 6.070085 5.397323 -13.405277 
-246.385498 91.730667 -540.241821 91.899437 6.228860 97.014955 -175.477942 -1.056107 175.004746 -9.976616 -0.897064 -9.206311 72.545065 5.373090 -4.078619 21.454551 0.003085 0.000000 -174.627146 4.832203 -173.235550 -12.134322 3.091064 8.190592 77.960476 -5.077992 3.234088 21.454558 -0.003121 -0.000019 7.608953 -0.328124 -0.238409 5.206660 -0.633942 -0.507450 4.888555 -0.636858 -0.503617 3.983535 -7.727723 -4.885519 -18.444338 14.482426 -11.673351 -135.073903 -88.873950 -46.714775 -7.105023 19.207621 -13.807107 -24.632652 -16.333940 1.227109 10.536110 -9.349638 39.714996 -121.889193 81.764502 60.339032 -7.649636 -17.508439 17.468555 -22.316509 16.069511 -1.211043 6.070102 5.463930 -13.339835 
-246.386307 91.729660 -540.230774 91.899437 6.220660 97.038526 -175.486466 -1.061206 175.021603 -9.986653 -0.900212 -9.198588 72.555604 5.367679 -4.078620 21.454555 0.003106 0.000002 -174.633348 4.832203 -173.229075 -12.150886 3.091065 8.202154 77.970537 -5.081494 3.245211 21.454562 -0.003104 -0.000016 7.612843 -0.328114 -0.238403 5.214279 -0.637276 -0.498535 4.896174 -0.640142 -0.494671 3.988557 -7.757517 -4.916417 -18.473276 14.514562 -11.725964 -135.733235 -88.869791 -46.054798 -7.112528 19.222859 -13.806128 -24.648621 -16.370346 1.227116 10.512733 -9.318599 39.733512 -121.901337 81.741218 60.328179 -7.683092 -17.511828 17.435110 -22.314611 16.069507 -1.211049 6.037522 5.578934 -13.322065 
-246.386002 91.728683 -540.220398 91.899430 6.210366 97.061243 -175.496656 -1.063279 175.040386 -9.996022 -0.906651 -9.193517 72.566102 5.364869 -4.078618 21.454553 0.003079 -0.000001 -174.640369 4.832201 -173.215810 -12.165562 3.085378 8.209739 77.979395 -5.083863 3.260592 21.454555 -0.003107 -0.000018 7.616117 -0.328111 -0.238409 5.220852 -0.640573 -0.491171 4.902738 -0.643374 -0.487300 4.017771 -7.781004 -4.944009 -18.523376 14.539485 -11.773354 -136.376584 -88.865467 -45.410257 -7.113361 19.230403 -13.801324 -24.665922 -16.418861 1.227113 10.489110 -9.284257 39.758060 -121.965595 81.732455 60.263988 -7.704362 -17.502992 17.410825 -22.325646 16.076720 -1.211044 5.982173 5.630629 -13.366639 
-246.384506 91.727921 -540.210327 91.899437 6.196760 97.083810 -175.509306 -1.064744 175.059757 -10.003752 -0.915258 -9.189251 72.575753 5.362775 -4.078620 21.454553 0.003078 0.000002 -174.650423 4.832202 -173.196481 -12.180658 3.077076 8.213688 77.989771 -5.085247 3.272299 21.454557 -0.003110 -0.000016 7.617740 -0.328119 -0.235454 5.225573 -0.644015 -0.485380 4.907465 -0.646803 -0.481478 4.066570 -7.789862 -4.977400 -18.587216 14.557023 -11.822694 -136.909803 -88.862715 -44.875955 -7.111487 19.229491 -13.786204 -24.683692 -16.474184 1.231019 10.478110 -9.259112 39.776341 -122.085069 81.735043 60.143279 -7.721426 -17.477621 17.395944 -22.339209 16.102039 -1.211046 5.936398 5.597942 -13.365371 
-246.381500 91.727257 -540.200378 91.899437 6.179832 97.106937 -175.524756 -1.065639 175.077474 -10.010435 -0.924258 -9.184584 72.584974 5.361024 -4.073754 21.454555 0.003098 0.000002 -174.663496 4.832197 -173.172548 -12.196361 3.067735 8.214099 78.000958 -5.085774 3.283280 21.454560 -0.003111 -0.000017 7.618768 -0.328613 -0.234055 5.228636 -0.648033 -0.482993 4.910517 -0.650778 -0.479069 4.118754 -7.797052 -5.007753 -18.643237 14.574109 -11.867121 -137.282813 -88.860474 -44.502043 -7.110612 19.222999 -13.763237 -24.702972 -16.526121 1.234161 10.462169 -9.271411 39.698422 -122.238079 81.745070 59.988213 -7.736378 -17.451418 17.376396 -22.355798 16.131490 -1.211042 5.925036 5.554974 -13.277145 
-246.376694 91.726700 -540.190186 91.899437 6.160469 97.130495 -175.542542 -1.066022 175.087952 -10.017128 -0.930358 -9.176759 72.594044 5.359188 -4.067622 21.454551 0.003094 -0.000001 -174.678413 4.832203 -173.147030 -12.211047 3.059133 8.214365 78.011620 -5.085581 3.293195 21.454557 -0.003101 -0.000015 7.619692 -0.329353 -0.233019 5.230911 -0.652040 -0.481966 4.912801 -0.654785 -0.478198 4.161546 -7.803919 -5.030622 -18.681307 14.591333 -11.901623 -137.471559 -88.856875 -44.313581 -7.113013 19.213054 -13.742697 -24.731041 -16.563624 1.236587 10.444480 -9.303725 39.605941 -122.414830 81.759857 59.809105 -7.748132 -17.431090 17.368707 -22.378959 16.154359 -1.211054 5.929216 5.579157 -13.258044 
-246.371796 91.726387 -540.179688 91.899437 6.139439 97.159188 -175.562335 -1.065819 175.100232 -10.023235 -0.937869 -9.168515 72.601660 5.356792 -4.059918 21.454553 0.003096 -0.000000 -174.690995 4.832199 -173.123371 -12.219691 3.051898 8.217793 78.020397 -5.084798 3.301695 21.454560 -0.003102 -0.000016 7.620518 -0.330244 -0.232359 5.232132 -0.656071 -0.481853 4.914017 -0.658793 -0.478121 4.194389 -7.808483 -5.045585 -18.706869 14.603605 -11.924401 -137.489249 -88.850393 -44.296167 -7.122114 19.197211 -13.742151 -24.763232 -16.565628 1.238222 10.397001 -9.317549 39.620995 -122.601732 81.776386 59.619437 -7.759130 -17.414510 17.354862 -22.401434 16.171651 -1.211052 5.934172 5.633491 -13.258379 
-246.366394 91.726334 -540.168518 91.899437 6.116906 97.192226 -175.583291 -1.065146 175.115627 -10.027414 -0.947455 -9.161897 72.607028 5.353156 -4.050944 21.454551 0.003085 -0.000001 -174.700885 4.832202 -173.100080 -12.223086 3.046307 8.224025 78.027938 -5.083563 3.308873 21.454555 -0.003116 -0.000017 7.621250 -0.331220 -0.231998 5.232964 -0.660090 -0.482257 4.914856 -0.662848 -0.478443 4.213871 -7.809743 -5.053232 -18.719406 14.610114 -11.935931 -137.331376 -88.840557 -44.454204 -7.145136 19.189954 -13.732031 -24.790351 -16.577962 1.239366 10.363703 -9.311947 39.663974 -122.774057 81.792089 59.444625 -7.771885 -17.405897 17.329698 -22.422529 16.191348 -1.211050 5.946583 5.687253 -13.256642 
-246.360306 91.726440 -540.156799 91.904218 6.092825 97.228699 -175.605543 -1.063974 175.120914 -10.030977 -0.956052 -9.148202 72.611352 5.347156 -4.039478 21.454553 0.003096 -0.000001 -174.709409 4.836999 -173.075600 -12.223727 3.042360 8.231560 78.035485 -5.082011 3.315417 21.454557 -0.003101 -0.000016 7.621909 -0.332190 -0.231883 5.233474 -0.663351 -0.482741 4.915362 -0.666108 -0.478819 4.218231 -7.810008 -5.055851 -18.718372 14.613830 -11.940069 -137.015207 -88.828639 -44.771764 -7.180979 19.185433 -13.726216 -24.805791 -16.588965 1.240216 10.361143 -9.326877 39.689283 -122.919718 81.810531 59.296335 -7.786728 -17.414897 17.305621 -22.434429 16.222966 -1.211050 5.962082 5.722750 -13.264115 
